<svg width="570" height="531" viewBox="0 0 570 531" fill="none" xmlns="http://www.w3.org/2000/svg">
<rect x="507.5" y="197.5" width="62" height="20" fill="#0B4483" stroke="#0B4483" stroke-linejoin="round"/>
<path d="M526.758 206.928C526.758 207.725 526.629 208.418 526.371 209.008C526.113 209.594 525.756 210.064 525.299 210.42L526.717 211.533L525.598 212.523L523.781 211.064C523.574 211.1 523.359 211.117 523.137 211.117C522.43 211.117 521.799 210.947 521.244 210.607C520.689 210.268 520.26 209.783 519.955 209.154C519.65 208.521 519.496 207.795 519.492 206.975V206.553C519.492 205.713 519.643 204.975 519.943 204.338C520.248 203.697 520.676 203.207 521.227 202.867C521.781 202.523 522.414 202.352 523.125 202.352C523.836 202.352 524.467 202.523 525.018 202.867C525.572 203.207 526 203.697 526.301 204.338C526.605 204.975 526.758 205.711 526.758 206.547V206.928ZM524.977 206.541C524.977 205.646 524.816 204.967 524.496 204.502C524.176 204.037 523.719 203.805 523.125 203.805C522.535 203.805 522.08 204.035 521.76 204.496C521.439 204.953 521.277 205.625 521.273 206.512V206.928C521.273 207.799 521.434 208.475 521.754 208.955C522.074 209.436 522.535 209.676 523.137 209.676C523.727 209.676 524.18 209.445 524.496 208.984C524.812 208.52 524.973 207.844 524.977 206.957V206.541ZM527.672 207.771C527.672 207.143 527.793 206.582 528.035 206.09C528.277 205.598 528.625 205.217 529.078 204.947C529.535 204.678 530.064 204.543 530.666 204.543C531.521 204.543 532.219 204.805 532.758 205.328C533.301 205.852 533.604 206.562 533.666 207.461L533.678 207.895C533.678 208.867 533.406 209.648 532.863 210.238C532.32 210.824 531.592 211.117 530.678 211.117C529.764 211.117 529.033 210.824 528.486 210.238C527.943 209.652 527.672 208.855 527.672 207.848V207.771ZM529.365 207.895C529.365 208.496 529.479 208.957 529.705 209.277C529.932 209.594 530.256 209.752 530.678 209.752C531.088 209.752 531.408 209.596 531.639 209.283C531.869 208.967 531.984 208.463 531.984 207.771C531.984 207.182 531.869 206.725 531.639 206.4C531.408 206.076 531.084 205.914 530.666 205.914C530.252 205.914 529.932 206.076 529.705 206.4C529.479 206.721 529.365 207.219 529.365 207.895ZM537 208.932L538.178 204.66H539.947L537.809 211H536.191L534.053 204.66H535.822L537 208.932ZM543.533 211.117C542.604 211.117 541.846 210.832 541.26 210.262C540.678 209.691 540.387 208.932 540.387 207.982V207.818C540.387 207.182 540.51 206.613 540.756 206.113C541.002 205.609 541.35 205.223 541.799 204.953C542.252 204.68 542.768 204.543 543.346 204.543C544.213 204.543 544.895 204.816 545.391 205.363C545.891 205.91 546.141 206.686 546.141 207.689V208.381H542.104C542.158 208.795 542.322 209.127 542.596 209.377C542.873 209.627 543.223 209.752 543.645 209.752C544.297 209.752 544.807 209.516 545.174 209.043L546.006 209.975C545.752 210.334 545.408 210.615 544.975 210.818C544.541 211.018 544.061 211.117 543.533 211.117ZM543.34 205.914C543.004 205.914 542.73 206.027 542.52 206.254C542.312 206.48 542.18 206.805 542.121 207.227H544.477V207.092C544.469 206.717 544.367 206.428 544.172 206.225C543.977 206.018 543.699 205.914 543.34 205.914ZM550.67 206.248C550.439 206.217 550.236 206.201 550.061 206.201C549.42 206.201 549 206.418 548.801 206.852V211H547.107V204.66H548.707L548.754 205.416C549.094 204.834 549.564 204.543 550.166 204.543C550.354 204.543 550.529 204.568 550.693 204.619L550.67 206.248ZM553.963 208.604L555.135 204.66H556.951L554.402 211.984L554.262 212.318C553.883 213.146 553.258 213.561 552.387 213.561C552.141 213.561 551.891 213.523 551.637 213.449V212.166L551.895 212.172C552.215 212.172 552.453 212.123 552.609 212.025C552.77 211.928 552.895 211.766 552.984 211.539L553.184 211.018L550.963 204.66H552.785L553.963 208.604Z" fill="white"/>
<path d="M508.257 216.429L504 220.5M502.757 221.929L498.5 226M497.257 227.429L493 231.5M491.757 232.929L487.5 237M486.257 238.429L482 242.5" stroke="#0B4483"/>
<path d="M12.2713 267.787C9.53909 266.24 9.57172 262.293 12.3291 260.792L259.774 126.1C260.96 125.454 262.392 125.451 263.581 126.09L518.906 263.37C521.66 264.85 521.726 268.777 519.023 270.35L273.379 413.283C272.15 413.998 270.634 414.008 269.397 413.307L12.2713 267.787Z" fill="#686BBD" stroke="#1A2031" stroke-opacity="0.79" stroke-width="11"/>
<path d="M285.682 228.707V277.001L308 263.359V214.189L285.682 228.707Z" fill="#33369F"/>
<path d="M266.602 188L223 213.241L246.902 228.707L266.533 217.035L285.682 228.707L308 214.19L266.602 188Z" fill="#B7B9E7"/>
<path d="M223 213.241L246.971 228.706L246.764 252.562L273.49 267.882L273.766 293.998L223 263.505V213.241Z" fill="#7173CD"/>
<path d="M266.533 217.035L285.682 228.707C285.682 228.707 285.735 252.886 285.735 252.521C287.126 253.229 266.809 241.838 266.809 241.838L266.533 217.035Z" fill="#7173CD"/>
<path d="M246.764 252.562L266.809 241.838L266.533 217.035L246.971 228.707L246.764 252.562Z" fill="#33369F"/>
<path d="M273.49 267.882L246.764 252.562L266.809 241.838L292.432 256.283L273.49 267.882Z" fill="#B7B9E7"/>
<path d="M273.766 294L292.088 280.942L292.432 256.284L273.49 267.883L273.766 294Z" fill="#33369F"/>
<path d="M225.348 214.775C232.512 219.443 239.807 224.043 246.971 228.712C253.514 224.846 259.992 220.903 266.535 217.037C272.941 220.903 279.283 224.842 285.689 228.708C292.232 224.331 298.85 220.252 305.362 215.905L266.539 191.211C252.832 199.09 239.125 206.896 225.348 214.775Z" fill="#B7B9E7"/>
</svg>
